<?xml version="1.0" encoding="UTF-8" standalone="no"?>
<!DOCTYPE svg PUBLIC "-//W3C//DTD SVG 1.1//EN"
 "http://www.w3.org/Graphics/SVG/1.1/DTD/svg11.dtd">
<!-- Generated by graphviz version 2.43.0 (0)
 -->
<!-- Title: fx_graph Pages: 1 -->
<svg width="623pt" height="902pt"
 viewBox="0.00 0.00 623.00 902.00" xmlns="http://www.w3.org/2000/svg" xmlns:xlink="http://www.w3.org/1999/xlink">
<g id="graph0" class="graph" transform="scale(1 1) rotate(0) translate(4 898)">
<title>fx_graph</title>
<polygon fill="white" stroke="transparent" points="-4,4 -4,-898 619,-898 619,4 -4,4"/>
<!-- arg0_1 -->
<g id="node1" class="node">
<title>arg0_1</title>
<path fill="AliceBlue" stroke="black" d="M12,-755.5C12,-755.5 157,-755.5 157,-755.5 163,-755.5 169,-761.5 169,-767.5 169,-767.5 169,-835.5 169,-835.5 169,-841.5 163,-847.5 157,-847.5 157,-847.5 12,-847.5 12,-847.5 6,-847.5 0,-841.5 0,-835.5 0,-835.5 0,-767.5 0,-767.5 0,-761.5 6,-755.5 12,-755.5"/>
<text text-anchor="middle" x="84.5" y="-832.3" font-family="Times,serif" font-size="14.00" fill="#000000">name=%arg0_1</text>
<polyline fill="none" stroke="black" points="0,-824.5 169,-824.5 "/>
<text text-anchor="middle" x="84.5" y="-809.3" font-family="Times,serif" font-size="14.00" fill="#000000">op_code=placeholder</text>
<polyline fill="none" stroke="black" points="0,-801.5 169,-801.5 "/>
<text text-anchor="middle" x="84.5" y="-786.3" font-family="Times,serif" font-size="14.00" fill="#000000">target=arg0_1</text>
<polyline fill="none" stroke="black" points="0,-778.5 169,-778.5 "/>
<text text-anchor="middle" x="84.5" y="-763.3" font-family="Times,serif" font-size="14.00" fill="#000000">num_users=0</text>
</g>
<!-- arg1_1 -->
<g id="node2" class="node">
<title>arg1_1</title>
<path fill="AliceBlue" stroke="black" d="M199,-709.5C199,-709.5 344,-709.5 344,-709.5 350,-709.5 356,-715.5 356,-721.5 356,-721.5 356,-881.5 356,-881.5 356,-887.5 350,-893.5 344,-893.5 344,-893.5 199,-893.5 199,-893.5 193,-893.5 187,-887.5 187,-881.5 187,-881.5 187,-721.5 187,-721.5 187,-715.5 193,-709.5 199,-709.5"/>
<text text-anchor="middle" x="271.5" y="-878.3" font-family="Times,serif" font-size="14.00" fill="#000000">name=%arg1_1</text>
<polyline fill="none" stroke="black" points="187,-870.5 356,-870.5 "/>
<text text-anchor="middle" x="271.5" y="-855.3" font-family="Times,serif" font-size="14.00" fill="#000000">op_code=placeholder</text>
<polyline fill="none" stroke="black" points="187,-847.5 356,-847.5 "/>
<text text-anchor="middle" x="271.5" y="-832.3" font-family="Times,serif" font-size="14.00" fill="#000000">target=arg1_1</text>
<polyline fill="none" stroke="black" points="187,-824.5 356,-824.5 "/>
<text text-anchor="middle" x="271.5" y="-809.3" font-family="Times,serif" font-size="14.00" fill="#000000">num_users=1</text>
<polyline fill="none" stroke="black" points="187,-801.5 356,-801.5 "/>
<text text-anchor="middle" x="271.5" y="-786.3" font-family="Times,serif" font-size="14.00" fill="#000000">dtype=torch.float32</text>
<polyline fill="none" stroke="black" points="187,-778.5 356,-778.5 "/>
<text text-anchor="middle" x="271.5" y="-763.3" font-family="Times,serif" font-size="14.00" fill="#000000">shape=(s0, 64, 64)</text>
<polyline fill="none" stroke="black" points="187,-755.5 356,-755.5 "/>
<text text-anchor="middle" x="271.5" y="-740.3" font-family="Times,serif" font-size="14.00" fill="#000000">requires_grad=False</text>
<polyline fill="none" stroke="black" points="187,-732.5 356,-732.5 "/>
<text text-anchor="middle" x="271.5" y="-717.3" font-family="Times,serif" font-size="14.00" fill="#000000">stride=(4096, 64, 1)</text>
</g>
<!-- bmm -->
<g id="node4" class="node">
<title>bmm</title>
<path fill="#ffe1ff" stroke="black" d="M134.5,-419.5C134.5,-419.5 594.5,-419.5 594.5,-419.5 600.5,-419.5 606.5,-425.5 606.5,-431.5 606.5,-431.5 606.5,-660.5 606.5,-660.5 606.5,-666.5 600.5,-672.5 594.5,-672.5 594.5,-672.5 134.5,-672.5 134.5,-672.5 128.5,-672.5 122.5,-666.5 122.5,-660.5 122.5,-660.5 122.5,-431.5 122.5,-431.5 122.5,-425.5 128.5,-419.5 134.5,-419.5"/>
<text text-anchor="middle" x="364.5" y="-657.3" font-family="Times,serif" font-size="14.00" fill="#000000">name=%bmm</text>
<polyline fill="none" stroke="black" points="122.5,-649.5 606.5,-649.5 "/>
<text text-anchor="middle" x="364.5" y="-634.3" font-family="Times,serif" font-size="14.00" fill="#000000">op_code=call_function</text>
<polyline fill="none" stroke="black" points="122.5,-626.5 606.5,-626.5 "/>
<text text-anchor="middle" x="364.5" y="-611.3" font-family="Times,serif" font-size="14.00" fill="#000000">target=torch.ops.aten.bmm.default</text>
<polyline fill="none" stroke="black" points="122.5,-603.5 606.5,-603.5 "/>
<text text-anchor="middle" x="364.5" y="-588.3" font-family="Times,serif" font-size="14.00" fill="#000000">num_users=1</text>
<polyline fill="none" stroke="black" points="122.5,-580.5 606.5,-580.5 "/>
<text text-anchor="middle" x="364.5" y="-565.3" font-family="Times,serif" font-size="14.00" fill="#000000">dtype=torch.float32</text>
<polyline fill="none" stroke="black" points="122.5,-557.5 606.5,-557.5 "/>
<text text-anchor="middle" x="364.5" y="-542.3" font-family="Times,serif" font-size="14.00" fill="#000000">shape=(s0, 31, 64)</text>
<polyline fill="none" stroke="black" points="122.5,-534.5 606.5,-534.5 "/>
<text text-anchor="middle" x="364.5" y="-519.3" font-family="Times,serif" font-size="14.00" fill="#000000">requires_grad=False</text>
<polyline fill="none" stroke="black" points="122.5,-511.5 606.5,-511.5 "/>
<text text-anchor="middle" x="364.5" y="-496.3" font-family="Times,serif" font-size="14.00" fill="#000000">stride=(1984, 64, 1)</text>
<polyline fill="none" stroke="black" points="122.5,-488.5 606.5,-488.5 "/>
<text text-anchor="middle" x="364.5" y="-473.3" font-family="Times,serif" font-size="14.00" fill="#000000">buf=op0</text>
<polyline fill="none" stroke="black" points="122.5,-465.5 606.5,-465.5 "/>
<text text-anchor="middle" x="364.5" y="-450.3" font-family="Times,serif" font-size="14.00" fill="#000000">n_origin=1</text>
<polyline fill="none" stroke="black" points="122.5,-442.5 606.5,-442.5 "/>
<text text-anchor="middle" x="364.5" y="-427.3" font-family="Times,serif" font-size="14.00" fill="#000000">file=pytorch/inductor_bmm_fusion.py:49 tmp1 = torch.bmm(x, y)</text>
</g>
<!-- arg1_1&#45;&gt;bmm -->
<g id="edge1" class="edge">
<title>arg1_1&#45;&gt;bmm</title>
<path fill="none" stroke="black" d="M304.94,-709.34C308.19,-700.49 311.53,-691.39 314.89,-682.23"/>
<polygon fill="black" stroke="black" points="318.24,-683.26 318.4,-672.67 311.67,-680.85 318.24,-683.26"/>
</g>
<!-- arg2_1 -->
<g id="node3" class="node">
<title>arg2_1</title>
<path fill="AliceBlue" stroke="black" d="M386,-709.5C386,-709.5 531,-709.5 531,-709.5 537,-709.5 543,-715.5 543,-721.5 543,-721.5 543,-881.5 543,-881.5 543,-887.5 537,-893.5 531,-893.5 531,-893.5 386,-893.5 386,-893.5 380,-893.5 374,-887.5 374,-881.5 374,-881.5 374,-721.5 374,-721.5 374,-715.5 380,-709.5 386,-709.5"/>
<text text-anchor="middle" x="458.5" y="-878.3" font-family="Times,serif" font-size="14.00" fill="#000000">name=%arg2_1</text>
<polyline fill="none" stroke="black" points="374,-870.5 543,-870.5 "/>
<text text-anchor="middle" x="458.5" y="-855.3" font-family="Times,serif" font-size="14.00" fill="#000000">op_code=placeholder</text>
<polyline fill="none" stroke="black" points="374,-847.5 543,-847.5 "/>
<text text-anchor="middle" x="458.5" y="-832.3" font-family="Times,serif" font-size="14.00" fill="#000000">target=arg2_1</text>
<polyline fill="none" stroke="black" points="374,-824.5 543,-824.5 "/>
<text text-anchor="middle" x="458.5" y="-809.3" font-family="Times,serif" font-size="14.00" fill="#000000">num_users=1</text>
<polyline fill="none" stroke="black" points="374,-801.5 543,-801.5 "/>
<text text-anchor="middle" x="458.5" y="-786.3" font-family="Times,serif" font-size="14.00" fill="#000000">dtype=torch.float32</text>
<polyline fill="none" stroke="black" points="374,-778.5 543,-778.5 "/>
<text text-anchor="middle" x="458.5" y="-763.3" font-family="Times,serif" font-size="14.00" fill="#000000">shape=(s0, 31, 64)</text>
<polyline fill="none" stroke="black" points="374,-755.5 543,-755.5 "/>
<text text-anchor="middle" x="458.5" y="-740.3" font-family="Times,serif" font-size="14.00" fill="#000000">requires_grad=False</text>
<polyline fill="none" stroke="black" points="374,-732.5 543,-732.5 "/>
<text text-anchor="middle" x="458.5" y="-717.3" font-family="Times,serif" font-size="14.00" fill="#000000">stride=(1984, 64, 1)</text>
</g>
<!-- arg2_1&#45;&gt;bmm -->
<g id="edge2" class="edge">
<title>arg2_1&#45;&gt;bmm</title>
<path fill="none" stroke="black" d="M424.7,-709.34C421.42,-700.49 418.04,-691.39 414.64,-682.23"/>
<polygon fill="black" stroke="black" points="417.86,-680.83 411.1,-672.67 411.29,-683.26 417.86,-680.83"/>
</g>
<!-- sigmoid -->
<g id="node5" class="node">
<title>sigmoid</title>
<path fill="#cdb5cd" stroke="black" d="M126,-129.5C126,-129.5 603,-129.5 603,-129.5 609,-129.5 615,-135.5 615,-141.5 615,-141.5 615,-370.5 615,-370.5 615,-376.5 609,-382.5 603,-382.5 603,-382.5 126,-382.5 126,-382.5 120,-382.5 114,-376.5 114,-370.5 114,-370.5 114,-141.5 114,-141.5 114,-135.5 120,-129.5 126,-129.5"/>
<text text-anchor="middle" x="364.5" y="-367.3" font-family="Times,serif" font-size="14.00" fill="#000000">name=%sigmoid</text>
<polyline fill="none" stroke="black" points="114,-359.5 615,-359.5 "/>
<text text-anchor="middle" x="364.5" y="-344.3" font-family="Times,serif" font-size="14.00" fill="#000000">op_code=call_function</text>
<polyline fill="none" stroke="black" points="114,-336.5 615,-336.5 "/>
<text text-anchor="middle" x="364.5" y="-321.3" font-family="Times,serif" font-size="14.00" fill="#000000">target=torch.ops.aten.sigmoid.default</text>
<polyline fill="none" stroke="black" points="114,-313.5 615,-313.5 "/>
<text text-anchor="middle" x="364.5" y="-298.3" font-family="Times,serif" font-size="14.00" fill="#000000">num_users=1</text>
<polyline fill="none" stroke="black" points="114,-290.5 615,-290.5 "/>
<text text-anchor="middle" x="364.5" y="-275.3" font-family="Times,serif" font-size="14.00" fill="#000000">dtype=torch.float32</text>
<polyline fill="none" stroke="black" points="114,-267.5 615,-267.5 "/>
<text text-anchor="middle" x="364.5" y="-252.3" font-family="Times,serif" font-size="14.00" fill="#000000">shape=(s0, 31, 64)</text>
<polyline fill="none" stroke="black" points="114,-244.5 615,-244.5 "/>
<text text-anchor="middle" x="364.5" y="-229.3" font-family="Times,serif" font-size="14.00" fill="#000000">requires_grad=False</text>
<polyline fill="none" stroke="black" points="114,-221.5 615,-221.5 "/>
<text text-anchor="middle" x="364.5" y="-206.3" font-family="Times,serif" font-size="14.00" fill="#000000">stride=(1984, 64, 1)</text>
<polyline fill="none" stroke="black" points="114,-198.5 615,-198.5 "/>
<text text-anchor="middle" x="364.5" y="-183.3" font-family="Times,serif" font-size="14.00" fill="#000000">buf=op1</text>
<polyline fill="none" stroke="black" points="114,-175.5 615,-175.5 "/>
<text text-anchor="middle" x="364.5" y="-160.3" font-family="Times,serif" font-size="14.00" fill="#000000">n_origin=1</text>
<polyline fill="none" stroke="black" points="114,-152.5 615,-152.5 "/>
<text text-anchor="middle" x="364.5" y="-137.3" font-family="Times,serif" font-size="14.00" fill="#000000">file=pytorch/inductor_bmm_fusion.py:50 res = torch.sigmoid(tmp1)</text>
</g>
<!-- bmm&#45;&gt;sigmoid -->
<g id="edge3" class="edge">
<title>bmm&#45;&gt;sigmoid</title>
<path fill="none" stroke="black" d="M364.5,-419.1C364.5,-410.39 364.5,-401.6 364.5,-392.85"/>
<polygon fill="black" stroke="black" points="368,-392.6 364.5,-382.6 361,-392.6 368,-392.6"/>
</g>
<!-- output -->
<g id="node6" class="node">
<title>output</title>
<path fill="PowderBlue" stroke="black" d="M310,-0.5C310,-0.5 419,-0.5 419,-0.5 425,-0.5 431,-6.5 431,-12.5 431,-12.5 431,-80.5 431,-80.5 431,-86.5 425,-92.5 419,-92.5 419,-92.5 310,-92.5 310,-92.5 304,-92.5 298,-86.5 298,-80.5 298,-80.5 298,-12.5 298,-12.5 298,-6.5 304,-0.5 310,-0.5"/>
<text text-anchor="middle" x="364.5" y="-77.3" font-family="Times,serif" font-size="14.00" fill="#000000">name=%output</text>
<polyline fill="none" stroke="black" points="298,-69.5 431,-69.5 "/>
<text text-anchor="middle" x="364.5" y="-54.3" font-family="Times,serif" font-size="14.00" fill="#000000">op_code=output</text>
<polyline fill="none" stroke="black" points="298,-46.5 431,-46.5 "/>
<text text-anchor="middle" x="364.5" y="-31.3" font-family="Times,serif" font-size="14.00" fill="#000000">target=output</text>
<polyline fill="none" stroke="black" points="298,-23.5 431,-23.5 "/>
<text text-anchor="middle" x="364.5" y="-8.3" font-family="Times,serif" font-size="14.00" fill="#000000">num_users=0</text>
</g>
<!-- sigmoid&#45;&gt;output -->
<g id="edge4" class="edge">
<title>sigmoid&#45;&gt;output</title>
<path fill="none" stroke="black" d="M364.5,-129.21C364.5,-120.12 364.5,-111.26 364.5,-102.93"/>
<polygon fill="black" stroke="black" points="368,-102.7 364.5,-92.7 361,-102.7 368,-102.7"/>
</g>
</g>
</svg>
