<?xml version="1.0" encoding="UTF-8" standalone="no"?>
<!DOCTYPE svg PUBLIC "-//W3C//DTD SVG 1.1//EN"
 "http://www.w3.org/Graphics/SVG/1.1/DTD/svg11.dtd">
<!-- Generated by graphviz version 2.43.0 (0)
 -->
<!-- Title: fx_graph Pages: 1 -->
<svg width="364pt" height="718pt"
 viewBox="0.00 0.00 364.00 718.00" xmlns="http://www.w3.org/2000/svg" xmlns:xlink="http://www.w3.org/1999/xlink">
<g id="graph0" class="graph" transform="scale(1 1) rotate(0) translate(4 714)">
<title>fx_graph</title>
<polygon fill="white" stroke="transparent" points="-4,4 -4,-714 360,-714 360,4 -4,4"/>
<!-- arg2_1 -->
<g id="node1" class="node">
<title>arg2_1</title>
<path fill="AliceBlue" stroke="black" d="M12,-617.5C12,-617.5 157,-617.5 157,-617.5 163,-617.5 169,-623.5 169,-629.5 169,-629.5 169,-697.5 169,-697.5 169,-703.5 163,-709.5 157,-709.5 157,-709.5 12,-709.5 12,-709.5 6,-709.5 0,-703.5 0,-697.5 0,-697.5 0,-629.5 0,-629.5 0,-623.5 6,-617.5 12,-617.5"/>
<text text-anchor="middle" x="84.5" y="-694.3" font-family="Times,serif" font-size="14.00" fill="#000000">name=%arg2_1</text>
<polyline fill="none" stroke="black" points="0,-686.5 169,-686.5 "/>
<text text-anchor="middle" x="84.5" y="-671.3" font-family="Times,serif" font-size="14.00" fill="#000000">op_code=placeholder</text>
<polyline fill="none" stroke="black" points="0,-663.5 169,-663.5 "/>
<text text-anchor="middle" x="84.5" y="-648.3" font-family="Times,serif" font-size="14.00" fill="#000000">target=arg2_1</text>
<polyline fill="none" stroke="black" points="0,-640.5 169,-640.5 "/>
<text text-anchor="middle" x="84.5" y="-625.3" font-family="Times,serif" font-size="14.00" fill="#000000">num_users=1</text>
</g>
<!-- op0 -->
<g id="node3" class="node">
<title>op0</title>
<path fill="#caff70" stroke="black" d="M25.5,-373.5C25.5,-373.5 329.5,-373.5 329.5,-373.5 335.5,-373.5 341.5,-379.5 341.5,-385.5 341.5,-385.5 341.5,-568.5 341.5,-568.5 341.5,-574.5 335.5,-580.5 329.5,-580.5 329.5,-580.5 25.5,-580.5 25.5,-580.5 19.5,-580.5 13.5,-574.5 13.5,-568.5 13.5,-568.5 13.5,-385.5 13.5,-385.5 13.5,-379.5 19.5,-373.5 25.5,-373.5"/>
<text text-anchor="middle" x="177.5" y="-565.3" font-family="Times,serif" font-size="14.00" fill="#000000">name=%op0</text>
<polyline fill="none" stroke="black" points="13.5,-557.5 341.5,-557.5 "/>
<text text-anchor="middle" x="177.5" y="-542.3" font-family="Times,serif" font-size="14.00" fill="#000000">op_code=call_function</text>
<polyline fill="none" stroke="black" points="13.5,-534.5 341.5,-534.5 "/>
<text text-anchor="middle" x="177.5" y="-519.3" font-family="Times,serif" font-size="14.00" fill="#000000">target=torch._inductor.debug.extern: fused</text>
<polyline fill="none" stroke="black" points="13.5,-511.5 341.5,-511.5 "/>
<text text-anchor="middle" x="177.5" y="-496.3" font-family="Times,serif" font-size="14.00" fill="#000000">kwargs={device: cuda:0,}</text>
<polyline fill="none" stroke="black" points="13.5,-488.5 341.5,-488.5 "/>
<text text-anchor="middle" x="177.5" y="-473.3" font-family="Times,serif" font-size="14.00" fill="#000000">num_users=1</text>
<polyline fill="none" stroke="black" points="13.5,-465.5 341.5,-465.5 "/>
<text text-anchor="middle" x="177.5" y="-450.3" font-family="Times,serif" font-size="14.00" fill="#000000">dtype=None</text>
<polyline fill="none" stroke="black" points="13.5,-442.5 341.5,-442.5 "/>
<text text-anchor="middle" x="177.5" y="-427.3" font-family="Times,serif" font-size="14.00" fill="#000000">shape=(&#39;e&#39;, &#39;x&#39;, &#39;t&#39;, &#39;e&#39;, &#39;r&#39;, &#39;n&#39;)</text>
<polyline fill="none" stroke="black" points="13.5,-419.5 341.5,-419.5 "/>
<text text-anchor="middle" x="177.5" y="-404.3" font-family="Times,serif" font-size="14.00" fill="#000000">requires_grad=None</text>
<polyline fill="none" stroke="black" points="13.5,-396.5 341.5,-396.5 "/>
<text text-anchor="middle" x="177.5" y="-381.3" font-family="Times,serif" font-size="14.00" fill="#000000">stride=None</text>
</g>
<!-- arg2_1&#45;&gt;op0 -->
<g id="edge1" class="edge">
<title>arg2_1&#45;&gt;op0</title>
<path fill="none" stroke="black" d="M107.25,-617.37C111.61,-608.71 116.36,-599.29 121.26,-589.58"/>
<polygon fill="black" stroke="black" points="124.41,-591.09 125.79,-580.59 118.16,-587.94 124.41,-591.09"/>
</g>
<!-- arg0_1 -->
<g id="node2" class="node">
<title>arg0_1</title>
<path fill="AliceBlue" stroke="black" d="M199,-617.5C199,-617.5 344,-617.5 344,-617.5 350,-617.5 356,-623.5 356,-629.5 356,-629.5 356,-697.5 356,-697.5 356,-703.5 350,-709.5 344,-709.5 344,-709.5 199,-709.5 199,-709.5 193,-709.5 187,-703.5 187,-697.5 187,-697.5 187,-629.5 187,-629.5 187,-623.5 193,-617.5 199,-617.5"/>
<text text-anchor="middle" x="271.5" y="-694.3" font-family="Times,serif" font-size="14.00" fill="#000000">name=%arg0_1</text>
<polyline fill="none" stroke="black" points="187,-686.5 356,-686.5 "/>
<text text-anchor="middle" x="271.5" y="-671.3" font-family="Times,serif" font-size="14.00" fill="#000000">op_code=placeholder</text>
<polyline fill="none" stroke="black" points="187,-663.5 356,-663.5 "/>
<text text-anchor="middle" x="271.5" y="-648.3" font-family="Times,serif" font-size="14.00" fill="#000000">target=arg0_1</text>
<polyline fill="none" stroke="black" points="187,-640.5 356,-640.5 "/>
<text text-anchor="middle" x="271.5" y="-625.3" font-family="Times,serif" font-size="14.00" fill="#000000">num_users=1</text>
</g>
<!-- arg0_1&#45;&gt;op0 -->
<g id="edge2" class="edge">
<title>arg0_1&#45;&gt;op0</title>
<path fill="none" stroke="black" d="M248.51,-617.37C244.09,-608.71 239.3,-599.29 234.35,-589.58"/>
<polygon fill="black" stroke="black" points="237.42,-587.91 229.77,-580.59 231.19,-591.09 237.42,-587.91"/>
</g>
<!-- op1 -->
<g id="node4" class="node">
<title>op1</title>
<path fill="#fff0f5" stroke="black" d="M18,-129.5C18,-129.5 337,-129.5 337,-129.5 343,-129.5 349,-135.5 349,-141.5 349,-141.5 349,-324.5 349,-324.5 349,-330.5 343,-336.5 337,-336.5 337,-336.5 18,-336.5 18,-336.5 12,-336.5 6,-330.5 6,-324.5 6,-324.5 6,-141.5 6,-141.5 6,-135.5 12,-129.5 18,-129.5"/>
<text text-anchor="middle" x="177.5" y="-321.3" font-family="Times,serif" font-size="14.00" fill="#000000">name=%op1</text>
<polyline fill="none" stroke="black" points="6,-313.5 349,-313.5 "/>
<text text-anchor="middle" x="177.5" y="-298.3" font-family="Times,serif" font-size="14.00" fill="#000000">op_code=call_function</text>
<polyline fill="none" stroke="black" points="6,-290.5 349,-290.5 "/>
<text text-anchor="middle" x="177.5" y="-275.3" font-family="Times,serif" font-size="14.00" fill="#000000">target=torch._inductor.debug.compute: fused</text>
<polyline fill="none" stroke="black" points="6,-267.5 349,-267.5 "/>
<text text-anchor="middle" x="177.5" y="-252.3" font-family="Times,serif" font-size="14.00" fill="#000000">kwargs={device: cuda:0,}</text>
<polyline fill="none" stroke="black" points="6,-244.5 349,-244.5 "/>
<text text-anchor="middle" x="177.5" y="-229.3" font-family="Times,serif" font-size="14.00" fill="#000000">num_users=1</text>
<polyline fill="none" stroke="black" points="6,-221.5 349,-221.5 "/>
<text text-anchor="middle" x="177.5" y="-206.3" font-family="Times,serif" font-size="14.00" fill="#000000">dtype=None</text>
<polyline fill="none" stroke="black" points="6,-198.5 349,-198.5 "/>
<text text-anchor="middle" x="177.5" y="-183.3" font-family="Times,serif" font-size="14.00" fill="#000000">shape=(4096, 1)</text>
<polyline fill="none" stroke="black" points="6,-175.5 349,-175.5 "/>
<text text-anchor="middle" x="177.5" y="-160.3" font-family="Times,serif" font-size="14.00" fill="#000000">requires_grad=None</text>
<polyline fill="none" stroke="black" points="6,-152.5 349,-152.5 "/>
<text text-anchor="middle" x="177.5" y="-137.3" font-family="Times,serif" font-size="14.00" fill="#000000">stride=None</text>
</g>
<!-- op0&#45;&gt;op1 -->
<g id="edge3" class="edge">
<title>op0&#45;&gt;op1</title>
<path fill="none" stroke="black" d="M177.5,-373.37C177.5,-364.67 177.5,-355.83 177.5,-347.06"/>
<polygon fill="black" stroke="black" points="181,-346.79 177.5,-336.79 174,-346.79 181,-346.79"/>
</g>
<!-- output -->
<g id="node5" class="node">
<title>output</title>
<path fill="PowderBlue" stroke="black" d="M123,-0.5C123,-0.5 232,-0.5 232,-0.5 238,-0.5 244,-6.5 244,-12.5 244,-12.5 244,-80.5 244,-80.5 244,-86.5 238,-92.5 232,-92.5 232,-92.5 123,-92.5 123,-92.5 117,-92.5 111,-86.5 111,-80.5 111,-80.5 111,-12.5 111,-12.5 111,-6.5 117,-0.5 123,-0.5"/>
<text text-anchor="middle" x="177.5" y="-77.3" font-family="Times,serif" font-size="14.00" fill="#000000">name=%output</text>
<polyline fill="none" stroke="black" points="111,-69.5 244,-69.5 "/>
<text text-anchor="middle" x="177.5" y="-54.3" font-family="Times,serif" font-size="14.00" fill="#000000">op_code=output</text>
<polyline fill="none" stroke="black" points="111,-46.5 244,-46.5 "/>
<text text-anchor="middle" x="177.5" y="-31.3" font-family="Times,serif" font-size="14.00" fill="#000000">target=output</text>
<polyline fill="none" stroke="black" points="111,-23.5 244,-23.5 "/>
<text text-anchor="middle" x="177.5" y="-8.3" font-family="Times,serif" font-size="14.00" fill="#000000">num_users=0</text>
</g>
<!-- op1&#45;&gt;output -->
<g id="edge4" class="edge">
<title>op1&#45;&gt;output</title>
<path fill="none" stroke="black" d="M177.5,-129.5C177.5,-120.3 177.5,-111.24 177.5,-102.69"/>
<polygon fill="black" stroke="black" points="181,-102.53 177.5,-92.53 174,-102.53 181,-102.53"/>
</g>
</g>
</svg>
