<?xml version="1.0" encoding="UTF-8" standalone="no"?>
<!DOCTYPE svg PUBLIC "-//W3C//DTD SVG 1.1//EN"
 "http://www.w3.org/Graphics/SVG/1.1/DTD/svg11.dtd">
<!-- Generated by graphviz version 2.43.0 (0)
 -->
<!-- Title: fx_graph Pages: 1 -->
<svg width="414pt" height="718pt"
 viewBox="0.00 0.00 414.00 718.00" xmlns="http://www.w3.org/2000/svg" xmlns:xlink="http://www.w3.org/1999/xlink">
<g id="graph0" class="graph" transform="scale(1 1) rotate(0) translate(4 714)">
<title>fx_graph</title>
<polygon fill="white" stroke="transparent" points="-4,4 -4,-714 410,-714 410,4 -4,4"/>
<!-- arg2_1 -->
<g id="node1" class="node">
<title>arg2_1</title>
<path fill="AliceBlue" stroke="black" d="M37.5,-617.5C37.5,-617.5 182.5,-617.5 182.5,-617.5 188.5,-617.5 194.5,-623.5 194.5,-629.5 194.5,-629.5 194.5,-697.5 194.5,-697.5 194.5,-703.5 188.5,-709.5 182.5,-709.5 182.5,-709.5 37.5,-709.5 37.5,-709.5 31.5,-709.5 25.5,-703.5 25.5,-697.5 25.5,-697.5 25.5,-629.5 25.5,-629.5 25.5,-623.5 31.5,-617.5 37.5,-617.5"/>
<text text-anchor="middle" x="110" y="-694.3" font-family="Times,serif" font-size="14.00" fill="#000000">name=%arg2_1</text>
<polyline fill="none" stroke="black" points="25.5,-686.5 194.5,-686.5 "/>
<text text-anchor="middle" x="110" y="-671.3" font-family="Times,serif" font-size="14.00" fill="#000000">op_code=placeholder</text>
<polyline fill="none" stroke="black" points="25.5,-663.5 194.5,-663.5 "/>
<text text-anchor="middle" x="110" y="-648.3" font-family="Times,serif" font-size="14.00" fill="#000000">target=arg2_1</text>
<polyline fill="none" stroke="black" points="25.5,-640.5 194.5,-640.5 "/>
<text text-anchor="middle" x="110" y="-625.3" font-family="Times,serif" font-size="14.00" fill="#000000">num_users=1</text>
</g>
<!-- op0 -->
<g id="node3" class="node">
<title>op0</title>
<path fill="#fff68f" stroke="black" d="M29.5,-373.5C29.5,-373.5 376.5,-373.5 376.5,-373.5 382.5,-373.5 388.5,-379.5 388.5,-385.5 388.5,-385.5 388.5,-568.5 388.5,-568.5 388.5,-574.5 382.5,-580.5 376.5,-580.5 376.5,-580.5 29.5,-580.5 29.5,-580.5 23.5,-580.5 17.5,-574.5 17.5,-568.5 17.5,-568.5 17.5,-385.5 17.5,-385.5 17.5,-379.5 23.5,-373.5 29.5,-373.5"/>
<text text-anchor="middle" x="203" y="-565.3" font-family="Times,serif" font-size="14.00" fill="#000000">name=%op0</text>
<polyline fill="none" stroke="black" points="17.5,-557.5 388.5,-557.5 "/>
<text text-anchor="middle" x="203" y="-542.3" font-family="Times,serif" font-size="14.00" fill="#000000">op_code=call_function</text>
<polyline fill="none" stroke="black" points="17.5,-534.5 388.5,-534.5 "/>
<text text-anchor="middle" x="203" y="-519.3" font-family="Times,serif" font-size="14.00" fill="#000000">target=torch._inductor.debug.extern: fused_bmm</text>
<polyline fill="none" stroke="black" points="17.5,-511.5 388.5,-511.5 "/>
<text text-anchor="middle" x="203" y="-496.3" font-family="Times,serif" font-size="14.00" fill="#000000">kwargs={device: cuda:0,}</text>
<polyline fill="none" stroke="black" points="17.5,-488.5 388.5,-488.5 "/>
<text text-anchor="middle" x="203" y="-473.3" font-family="Times,serif" font-size="14.00" fill="#000000">num_users=1</text>
<polyline fill="none" stroke="black" points="17.5,-465.5 388.5,-465.5 "/>
<text text-anchor="middle" x="203" y="-450.3" font-family="Times,serif" font-size="14.00" fill="#000000">dtype=None</text>
<polyline fill="none" stroke="black" points="17.5,-442.5 388.5,-442.5 "/>
<text text-anchor="middle" x="203" y="-427.3" font-family="Times,serif" font-size="14.00" fill="#000000">shape=(&#39;e&#39;, &#39;x&#39;, &#39;t&#39;, &#39;e&#39;, &#39;r&#39;, &#39;n&#39;)</text>
<polyline fill="none" stroke="black" points="17.5,-419.5 388.5,-419.5 "/>
<text text-anchor="middle" x="203" y="-404.3" font-family="Times,serif" font-size="14.00" fill="#000000">requires_grad=None</text>
<polyline fill="none" stroke="black" points="17.5,-396.5 388.5,-396.5 "/>
<text text-anchor="middle" x="203" y="-381.3" font-family="Times,serif" font-size="14.00" fill="#000000">stride=None</text>
</g>
<!-- arg2_1&#45;&gt;op0 -->
<g id="edge1" class="edge">
<title>arg2_1&#45;&gt;op0</title>
<path fill="none" stroke="black" d="M132.75,-617.37C137.11,-608.71 141.86,-599.29 146.76,-589.58"/>
<polygon fill="black" stroke="black" points="149.91,-591.09 151.29,-580.59 143.66,-587.94 149.91,-591.09"/>
</g>
<!-- arg1_1 -->
<g id="node2" class="node">
<title>arg1_1</title>
<path fill="AliceBlue" stroke="black" d="M224.5,-617.5C224.5,-617.5 369.5,-617.5 369.5,-617.5 375.5,-617.5 381.5,-623.5 381.5,-629.5 381.5,-629.5 381.5,-697.5 381.5,-697.5 381.5,-703.5 375.5,-709.5 369.5,-709.5 369.5,-709.5 224.5,-709.5 224.5,-709.5 218.5,-709.5 212.5,-703.5 212.5,-697.5 212.5,-697.5 212.5,-629.5 212.5,-629.5 212.5,-623.5 218.5,-617.5 224.5,-617.5"/>
<text text-anchor="middle" x="297" y="-694.3" font-family="Times,serif" font-size="14.00" fill="#000000">name=%arg1_1</text>
<polyline fill="none" stroke="black" points="212.5,-686.5 381.5,-686.5 "/>
<text text-anchor="middle" x="297" y="-671.3" font-family="Times,serif" font-size="14.00" fill="#000000">op_code=placeholder</text>
<polyline fill="none" stroke="black" points="212.5,-663.5 381.5,-663.5 "/>
<text text-anchor="middle" x="297" y="-648.3" font-family="Times,serif" font-size="14.00" fill="#000000">target=arg1_1</text>
<polyline fill="none" stroke="black" points="212.5,-640.5 381.5,-640.5 "/>
<text text-anchor="middle" x="297" y="-625.3" font-family="Times,serif" font-size="14.00" fill="#000000">num_users=1</text>
</g>
<!-- arg1_1&#45;&gt;op0 -->
<g id="edge2" class="edge">
<title>arg1_1&#45;&gt;op0</title>
<path fill="none" stroke="black" d="M274.01,-617.37C269.59,-608.71 264.8,-599.29 259.85,-589.58"/>
<polygon fill="black" stroke="black" points="262.92,-587.91 255.27,-580.59 256.69,-591.09 262.92,-587.91"/>
</g>
<!-- op1 -->
<g id="node4" class="node">
<title>op1</title>
<path fill="#eed5d2" stroke="black" d="M12,-129.5C12,-129.5 394,-129.5 394,-129.5 400,-129.5 406,-135.5 406,-141.5 406,-141.5 406,-324.5 406,-324.5 406,-330.5 400,-336.5 394,-336.5 394,-336.5 12,-336.5 12,-336.5 6,-336.5 0,-330.5 0,-324.5 0,-324.5 0,-141.5 0,-141.5 0,-135.5 6,-129.5 12,-129.5"/>
<text text-anchor="middle" x="203" y="-321.3" font-family="Times,serif" font-size="14.00" fill="#000000">name=%op1</text>
<polyline fill="none" stroke="black" points="0,-313.5 406,-313.5 "/>
<text text-anchor="middle" x="203" y="-298.3" font-family="Times,serif" font-size="14.00" fill="#000000">op_code=call_function</text>
<polyline fill="none" stroke="black" points="0,-290.5 406,-290.5 "/>
<text text-anchor="middle" x="203" y="-275.3" font-family="Times,serif" font-size="14.00" fill="#000000">target=torch._inductor.debug.compute: fused_sigmoid</text>
<polyline fill="none" stroke="black" points="0,-267.5 406,-267.5 "/>
<text text-anchor="middle" x="203" y="-252.3" font-family="Times,serif" font-size="14.00" fill="#000000">kwargs={device: cuda:0,}</text>
<polyline fill="none" stroke="black" points="0,-244.5 406,-244.5 "/>
<text text-anchor="middle" x="203" y="-229.3" font-family="Times,serif" font-size="14.00" fill="#000000">num_users=1</text>
<polyline fill="none" stroke="black" points="0,-221.5 406,-221.5 "/>
<text text-anchor="middle" x="203" y="-206.3" font-family="Times,serif" font-size="14.00" fill="#000000">dtype=None</text>
<polyline fill="none" stroke="black" points="0,-198.5 406,-198.5 "/>
<text text-anchor="middle" x="203" y="-183.3" font-family="Times,serif" font-size="14.00" fill="#000000">shape=(1984*s0, 1)</text>
<polyline fill="none" stroke="black" points="0,-175.5 406,-175.5 "/>
<text text-anchor="middle" x="203" y="-160.3" font-family="Times,serif" font-size="14.00" fill="#000000">requires_grad=None</text>
<polyline fill="none" stroke="black" points="0,-152.5 406,-152.5 "/>
<text text-anchor="middle" x="203" y="-137.3" font-family="Times,serif" font-size="14.00" fill="#000000">stride=None</text>
</g>
<!-- op0&#45;&gt;op1 -->
<g id="edge3" class="edge">
<title>op0&#45;&gt;op1</title>
<path fill="none" stroke="black" d="M203,-373.37C203,-364.67 203,-355.83 203,-347.06"/>
<polygon fill="black" stroke="black" points="206.5,-346.79 203,-336.79 199.5,-346.79 206.5,-346.79"/>
</g>
<!-- output -->
<g id="node5" class="node">
<title>output</title>
<path fill="PowderBlue" stroke="black" d="M148.5,-0.5C148.5,-0.5 257.5,-0.5 257.5,-0.5 263.5,-0.5 269.5,-6.5 269.5,-12.5 269.5,-12.5 269.5,-80.5 269.5,-80.5 269.5,-86.5 263.5,-92.5 257.5,-92.5 257.5,-92.5 148.5,-92.5 148.5,-92.5 142.5,-92.5 136.5,-86.5 136.5,-80.5 136.5,-80.5 136.5,-12.5 136.5,-12.5 136.5,-6.5 142.5,-0.5 148.5,-0.5"/>
<text text-anchor="middle" x="203" y="-77.3" font-family="Times,serif" font-size="14.00" fill="#000000">name=%output</text>
<polyline fill="none" stroke="black" points="136.5,-69.5 269.5,-69.5 "/>
<text text-anchor="middle" x="203" y="-54.3" font-family="Times,serif" font-size="14.00" fill="#000000">op_code=output</text>
<polyline fill="none" stroke="black" points="136.5,-46.5 269.5,-46.5 "/>
<text text-anchor="middle" x="203" y="-31.3" font-family="Times,serif" font-size="14.00" fill="#000000">target=output</text>
<polyline fill="none" stroke="black" points="136.5,-23.5 269.5,-23.5 "/>
<text text-anchor="middle" x="203" y="-8.3" font-family="Times,serif" font-size="14.00" fill="#000000">num_users=0</text>
</g>
<!-- op1&#45;&gt;output -->
<g id="edge4" class="edge">
<title>op1&#45;&gt;output</title>
<path fill="none" stroke="black" d="M203,-129.5C203,-120.3 203,-111.24 203,-102.69"/>
<polygon fill="black" stroke="black" points="206.5,-102.53 203,-92.53 199.5,-102.53 206.5,-102.53"/>
</g>
</g>
</svg>
