<?xml version="1.0" encoding="UTF-8" standalone="no"?>
<!DOCTYPE svg PUBLIC "-//W3C//DTD SVG 1.1//EN"
 "http://www.w3.org/Graphics/SVG/1.1/DTD/svg11.dtd">
<!-- Generated by graphviz version 2.43.0 (0)
 -->
<!-- Title: fx_graph Pages: 1 -->
<svg width="509pt" height="902pt"
 viewBox="0.00 0.00 509.00 902.00" xmlns="http://www.w3.org/2000/svg" xmlns:xlink="http://www.w3.org/1999/xlink">
<g id="graph0" class="graph" transform="scale(1 1) rotate(0) translate(4 898)">
<title>fx_graph</title>
<polygon fill="white" stroke="transparent" points="-4,4 -4,-898 505,-898 505,4 -4,4"/>
<!-- arg0_1 -->
<g id="node1" class="node">
<title>arg0_1</title>
<path fill="AliceBlue" stroke="black" d="M85,-709.5C85,-709.5 230,-709.5 230,-709.5 236,-709.5 242,-715.5 242,-721.5 242,-721.5 242,-881.5 242,-881.5 242,-887.5 236,-893.5 230,-893.5 230,-893.5 85,-893.5 85,-893.5 79,-893.5 73,-887.5 73,-881.5 73,-881.5 73,-721.5 73,-721.5 73,-715.5 79,-709.5 85,-709.5"/>
<text text-anchor="middle" x="157.5" y="-878.3" font-family="Times,serif" font-size="14.00" fill="#000000">name=%arg0_1</text>
<polyline fill="none" stroke="black" points="73,-870.5 242,-870.5 "/>
<text text-anchor="middle" x="157.5" y="-855.3" font-family="Times,serif" font-size="14.00" fill="#000000">op_code=placeholder</text>
<polyline fill="none" stroke="black" points="73,-847.5 242,-847.5 "/>
<text text-anchor="middle" x="157.5" y="-832.3" font-family="Times,serif" font-size="14.00" fill="#000000">target=arg0_1</text>
<polyline fill="none" stroke="black" points="73,-824.5 242,-824.5 "/>
<text text-anchor="middle" x="157.5" y="-809.3" font-family="Times,serif" font-size="14.00" fill="#000000">num_users=1</text>
<polyline fill="none" stroke="black" points="73,-801.5 242,-801.5 "/>
<text text-anchor="middle" x="157.5" y="-786.3" font-family="Times,serif" font-size="14.00" fill="#000000">dtype=torch.float32</text>
<polyline fill="none" stroke="black" points="73,-778.5 242,-778.5 "/>
<text text-anchor="middle" x="157.5" y="-763.3" font-family="Times,serif" font-size="14.00" fill="#000000">shape=(3, 64, 64)</text>
<polyline fill="none" stroke="black" points="73,-755.5 242,-755.5 "/>
<text text-anchor="middle" x="157.5" y="-740.3" font-family="Times,serif" font-size="14.00" fill="#000000">requires_grad=False</text>
<polyline fill="none" stroke="black" points="73,-732.5 242,-732.5 "/>
<text text-anchor="middle" x="157.5" y="-717.3" font-family="Times,serif" font-size="14.00" fill="#000000">stride=(4096, 64, 1)</text>
</g>
<!-- bmm -->
<g id="node3" class="node">
<title>bmm</title>
<path fill="#ffe1ff" stroke="black" d="M20.5,-419.5C20.5,-419.5 480.5,-419.5 480.5,-419.5 486.5,-419.5 492.5,-425.5 492.5,-431.5 492.5,-431.5 492.5,-660.5 492.5,-660.5 492.5,-666.5 486.5,-672.5 480.5,-672.5 480.5,-672.5 20.5,-672.5 20.5,-672.5 14.5,-672.5 8.5,-666.5 8.5,-660.5 8.5,-660.5 8.5,-431.5 8.5,-431.5 8.5,-425.5 14.5,-419.5 20.5,-419.5"/>
<text text-anchor="middle" x="250.5" y="-657.3" font-family="Times,serif" font-size="14.00" fill="#000000">name=%bmm</text>
<polyline fill="none" stroke="black" points="8.5,-649.5 492.5,-649.5 "/>
<text text-anchor="middle" x="250.5" y="-634.3" font-family="Times,serif" font-size="14.00" fill="#000000">op_code=call_function</text>
<polyline fill="none" stroke="black" points="8.5,-626.5 492.5,-626.5 "/>
<text text-anchor="middle" x="250.5" y="-611.3" font-family="Times,serif" font-size="14.00" fill="#000000">target=torch.ops.aten.bmm.default</text>
<polyline fill="none" stroke="black" points="8.5,-603.5 492.5,-603.5 "/>
<text text-anchor="middle" x="250.5" y="-588.3" font-family="Times,serif" font-size="14.00" fill="#000000">num_users=1</text>
<polyline fill="none" stroke="black" points="8.5,-580.5 492.5,-580.5 "/>
<text text-anchor="middle" x="250.5" y="-565.3" font-family="Times,serif" font-size="14.00" fill="#000000">dtype=torch.float32</text>
<polyline fill="none" stroke="black" points="8.5,-557.5 492.5,-557.5 "/>
<text text-anchor="middle" x="250.5" y="-542.3" font-family="Times,serif" font-size="14.00" fill="#000000">shape=(3, 31, 64)</text>
<polyline fill="none" stroke="black" points="8.5,-534.5 492.5,-534.5 "/>
<text text-anchor="middle" x="250.5" y="-519.3" font-family="Times,serif" font-size="14.00" fill="#000000">requires_grad=False</text>
<polyline fill="none" stroke="black" points="8.5,-511.5 492.5,-511.5 "/>
<text text-anchor="middle" x="250.5" y="-496.3" font-family="Times,serif" font-size="14.00" fill="#000000">stride=(1984, 64, 1)</text>
<polyline fill="none" stroke="black" points="8.5,-488.5 492.5,-488.5 "/>
<text text-anchor="middle" x="250.5" y="-473.3" font-family="Times,serif" font-size="14.00" fill="#000000">buf=op0</text>
<polyline fill="none" stroke="black" points="8.5,-465.5 492.5,-465.5 "/>
<text text-anchor="middle" x="250.5" y="-450.3" font-family="Times,serif" font-size="14.00" fill="#000000">n_origin=1</text>
<polyline fill="none" stroke="black" points="8.5,-442.5 492.5,-442.5 "/>
<text text-anchor="middle" x="250.5" y="-427.3" font-family="Times,serif" font-size="14.00" fill="#000000">file=pytorch/inductor_bmm_fusion.py:49 tmp1 = torch.bmm(x, y)</text>
</g>
<!-- arg0_1&#45;&gt;bmm -->
<g id="edge1" class="edge">
<title>arg0_1&#45;&gt;bmm</title>
<path fill="none" stroke="black" d="M190.94,-709.34C194.19,-700.49 197.53,-691.39 200.89,-682.23"/>
<polygon fill="black" stroke="black" points="204.24,-683.26 204.4,-672.67 197.67,-680.85 204.24,-683.26"/>
</g>
<!-- arg1_1 -->
<g id="node2" class="node">
<title>arg1_1</title>
<path fill="AliceBlue" stroke="black" d="M272,-709.5C272,-709.5 417,-709.5 417,-709.5 423,-709.5 429,-715.5 429,-721.5 429,-721.5 429,-881.5 429,-881.5 429,-887.5 423,-893.5 417,-893.5 417,-893.5 272,-893.5 272,-893.5 266,-893.5 260,-887.5 260,-881.5 260,-881.5 260,-721.5 260,-721.5 260,-715.5 266,-709.5 272,-709.5"/>
<text text-anchor="middle" x="344.5" y="-878.3" font-family="Times,serif" font-size="14.00" fill="#000000">name=%arg1_1</text>
<polyline fill="none" stroke="black" points="260,-870.5 429,-870.5 "/>
<text text-anchor="middle" x="344.5" y="-855.3" font-family="Times,serif" font-size="14.00" fill="#000000">op_code=placeholder</text>
<polyline fill="none" stroke="black" points="260,-847.5 429,-847.5 "/>
<text text-anchor="middle" x="344.5" y="-832.3" font-family="Times,serif" font-size="14.00" fill="#000000">target=arg1_1</text>
<polyline fill="none" stroke="black" points="260,-824.5 429,-824.5 "/>
<text text-anchor="middle" x="344.5" y="-809.3" font-family="Times,serif" font-size="14.00" fill="#000000">num_users=1</text>
<polyline fill="none" stroke="black" points="260,-801.5 429,-801.5 "/>
<text text-anchor="middle" x="344.5" y="-786.3" font-family="Times,serif" font-size="14.00" fill="#000000">dtype=torch.float32</text>
<polyline fill="none" stroke="black" points="260,-778.5 429,-778.5 "/>
<text text-anchor="middle" x="344.5" y="-763.3" font-family="Times,serif" font-size="14.00" fill="#000000">shape=(3, 31, 64)</text>
<polyline fill="none" stroke="black" points="260,-755.5 429,-755.5 "/>
<text text-anchor="middle" x="344.5" y="-740.3" font-family="Times,serif" font-size="14.00" fill="#000000">requires_grad=False</text>
<polyline fill="none" stroke="black" points="260,-732.5 429,-732.5 "/>
<text text-anchor="middle" x="344.5" y="-717.3" font-family="Times,serif" font-size="14.00" fill="#000000">stride=(1984, 64, 1)</text>
</g>
<!-- arg1_1&#45;&gt;bmm -->
<g id="edge2" class="edge">
<title>arg1_1&#45;&gt;bmm</title>
<path fill="none" stroke="black" d="M310.7,-709.34C307.42,-700.49 304.04,-691.39 300.64,-682.23"/>
<polygon fill="black" stroke="black" points="303.86,-680.83 297.1,-672.67 297.29,-683.26 303.86,-680.83"/>
</g>
<!-- sigmoid -->
<g id="node4" class="node">
<title>sigmoid</title>
<path fill="#cdb5cd" stroke="black" d="M12,-129.5C12,-129.5 489,-129.5 489,-129.5 495,-129.5 501,-135.5 501,-141.5 501,-141.5 501,-370.5 501,-370.5 501,-376.5 495,-382.5 489,-382.5 489,-382.5 12,-382.5 12,-382.5 6,-382.5 0,-376.5 0,-370.5 0,-370.5 0,-141.5 0,-141.5 0,-135.5 6,-129.5 12,-129.5"/>
<text text-anchor="middle" x="250.5" y="-367.3" font-family="Times,serif" font-size="14.00" fill="#000000">name=%sigmoid</text>
<polyline fill="none" stroke="black" points="0,-359.5 501,-359.5 "/>
<text text-anchor="middle" x="250.5" y="-344.3" font-family="Times,serif" font-size="14.00" fill="#000000">op_code=call_function</text>
<polyline fill="none" stroke="black" points="0,-336.5 501,-336.5 "/>
<text text-anchor="middle" x="250.5" y="-321.3" font-family="Times,serif" font-size="14.00" fill="#000000">target=torch.ops.aten.sigmoid.default</text>
<polyline fill="none" stroke="black" points="0,-313.5 501,-313.5 "/>
<text text-anchor="middle" x="250.5" y="-298.3" font-family="Times,serif" font-size="14.00" fill="#000000">num_users=1</text>
<polyline fill="none" stroke="black" points="0,-290.5 501,-290.5 "/>
<text text-anchor="middle" x="250.5" y="-275.3" font-family="Times,serif" font-size="14.00" fill="#000000">dtype=torch.float32</text>
<polyline fill="none" stroke="black" points="0,-267.5 501,-267.5 "/>
<text text-anchor="middle" x="250.5" y="-252.3" font-family="Times,serif" font-size="14.00" fill="#000000">shape=(3, 31, 64)</text>
<polyline fill="none" stroke="black" points="0,-244.5 501,-244.5 "/>
<text text-anchor="middle" x="250.5" y="-229.3" font-family="Times,serif" font-size="14.00" fill="#000000">requires_grad=False</text>
<polyline fill="none" stroke="black" points="0,-221.5 501,-221.5 "/>
<text text-anchor="middle" x="250.5" y="-206.3" font-family="Times,serif" font-size="14.00" fill="#000000">stride=(1984, 64, 1)</text>
<polyline fill="none" stroke="black" points="0,-198.5 501,-198.5 "/>
<text text-anchor="middle" x="250.5" y="-183.3" font-family="Times,serif" font-size="14.00" fill="#000000">buf=op1</text>
<polyline fill="none" stroke="black" points="0,-175.5 501,-175.5 "/>
<text text-anchor="middle" x="250.5" y="-160.3" font-family="Times,serif" font-size="14.00" fill="#000000">n_origin=1</text>
<polyline fill="none" stroke="black" points="0,-152.5 501,-152.5 "/>
<text text-anchor="middle" x="250.5" y="-137.3" font-family="Times,serif" font-size="14.00" fill="#000000">file=pytorch/inductor_bmm_fusion.py:50 res = torch.sigmoid(tmp1)</text>
</g>
<!-- bmm&#45;&gt;sigmoid -->
<g id="edge3" class="edge">
<title>bmm&#45;&gt;sigmoid</title>
<path fill="none" stroke="black" d="M250.5,-419.1C250.5,-410.39 250.5,-401.6 250.5,-392.85"/>
<polygon fill="black" stroke="black" points="254,-392.6 250.5,-382.6 247,-392.6 254,-392.6"/>
</g>
<!-- output -->
<g id="node5" class="node">
<title>output</title>
<path fill="PowderBlue" stroke="black" d="M196,-0.5C196,-0.5 305,-0.5 305,-0.5 311,-0.5 317,-6.5 317,-12.5 317,-12.5 317,-80.5 317,-80.5 317,-86.5 311,-92.5 305,-92.5 305,-92.5 196,-92.5 196,-92.5 190,-92.5 184,-86.5 184,-80.5 184,-80.5 184,-12.5 184,-12.5 184,-6.5 190,-0.5 196,-0.5"/>
<text text-anchor="middle" x="250.5" y="-77.3" font-family="Times,serif" font-size="14.00" fill="#000000">name=%output</text>
<polyline fill="none" stroke="black" points="184,-69.5 317,-69.5 "/>
<text text-anchor="middle" x="250.5" y="-54.3" font-family="Times,serif" font-size="14.00" fill="#000000">op_code=output</text>
<polyline fill="none" stroke="black" points="184,-46.5 317,-46.5 "/>
<text text-anchor="middle" x="250.5" y="-31.3" font-family="Times,serif" font-size="14.00" fill="#000000">target=output</text>
<polyline fill="none" stroke="black" points="184,-23.5 317,-23.5 "/>
<text text-anchor="middle" x="250.5" y="-8.3" font-family="Times,serif" font-size="14.00" fill="#000000">num_users=0</text>
</g>
<!-- sigmoid&#45;&gt;output -->
<g id="edge4" class="edge">
<title>sigmoid&#45;&gt;output</title>
<path fill="none" stroke="black" d="M250.5,-129.21C250.5,-120.12 250.5,-111.26 250.5,-102.93"/>
<polygon fill="black" stroke="black" points="254,-102.7 250.5,-92.7 247,-102.7 254,-102.7"/>
</g>
</g>
</svg>
